<?xml version="1.0" standalone="no"?>
<!DOCTYPE svg PUBLIC "-//W3C//DTD SVG 20010904//EN"
 "http://www.w3.org/TR/2001/REC-SVG-20010904/DTD/svg10.dtd">
<svg version="1.0" xmlns="http://www.w3.org/2000/svg"
 width="300.000000pt" height="300.000000pt" viewBox="0 0 300.000000 300.000000"
 preserveAspectRatio="xMidYMid meet">
<metadata>
Created by potrace 1.11, written by Peter Selinger 2001-2013
</metadata>
<g transform="translate(0.000000,300.000000) scale(0.100000,-0.100000)"
fill="#000000" stroke="none">
<path d="M1380 2233 c0 -12 3 -13 13 -5 10 8 13 6 14 -11 2 -17 0 -19 -7 -7
-8 12 -10 11 -10 -5 -1 -18 -2 -18 -10 3 -13 31 -22 28 -15 -5 6 -27 6 -27 -9
-9 -25 31 -19 12 14 -44 16 -27 25 -50 19 -50 -6 0 -9 -9 -6 -20 5 -20 -8 -25
-54 -21 -23 2 -115 -102 -149 -169 -47 -93 -63 -171 -57 -280 8 -139 42 -226
130 -332 l39 -48 96 0 97 1 -38 20 c-22 11 -60 41 -86 67 -90 90 -131 190
-132 320 0 86 12 138 49 210 25 49 101 142 116 142 3 0 6 -14 6 -30 0 -17 9
-56 21 -88 53 -147 53 -147 30 -246 -31 -134 -32 -153 -11 -178 l18 -23 11 28
c6 16 15 26 21 22 5 -3 6 -13 3 -22 -4 -9 1 -21 10 -28 13 -9 18 -32 20 -99 2
-47 6 -88 9 -91 4 -5 138 -8 239 -6 15 1 30 8 33 17 7 18 -48 157 -70 174 -22
19 -7 29 37 24 l42 -5 -6 48 c-3 26 -14 89 -25 138 l-20 90 27 25 c14 14 51
53 80 88 30 34 60 62 67 62 8 0 14 4 14 9 0 18 33 21 46 4 25 -33 63 -118 73
-162 12 -54 8 -170 -9 -231 -25 -95 -100 -195 -189 -252 l-45 -28 91 0 91 0
41 48 41 47 0 -167 0 -168 28 0 c136 -2 407 2 447 7 238 28 365 143 359 324
-3 106 -65 187 -177 231 l-38 14 40 27 c83 55 115 152 86 253 -30 105 -150
186 -311 209 -34 4 -345 9 -416 6 -15 -1 -18 -10 -18 -52 0 -45 -2 -50 -15
-39 -8 7 -15 19 -15 26 0 8 -8 14 -17 14 -13 0 -14 3 -5 12 17 17 15 33 -2 19
-11 -9 -15 -8 -20 5 -4 9 -4 19 -1 22 3 3 5 0 5 -7 0 -7 5 -9 11 -5 8 4 7 9
-2 15 -10 6 -22 -1 -41 -24 -27 -31 -27 -31 -28 -8 0 36 -14 16 -17 -24 -1
-26 -12 -43 -45 -72 -24 -20 -63 -58 -88 -83 -40 -41 -89 -75 -96 -67 -2 1 1
20 6 42 17 78 0 132 -46 151 -40 17 -59 10 -98 -37 -20 -24 -26 -41 -26 -79 0
-43 -2 -48 -20 -43 -13 4 -23 19 -30 47 -6 22 -17 66 -25 96 -8 30 -17 73 -21
95 -3 22 -11 43 -16 46 -7 5 -6 19 2 43 7 21 9 40 6 43 -3 4 -6 1 -6 -5 0 -27
-19 -10 -22 20 -3 32 -38 52 -38 21z m1189 -299 c73 -24 118 -70 126 -128 12
-80 -21 -139 -96 -170 -56 -23 -84 -27 -231 -33 l-138 -5 0 182 0 182 143 -5
c98 -4 159 -11 196 -23z m25 -455 c138 -32 199 -105 183 -220 -16 -120 -124
-166 -398 -168 l-149 -2 0 204 0 204 156 -3 c87 -1 180 -8 208 -15z"/>
<path d="M226 2039 c-33 -26 -89 -104 -119 -165 -97 -195 -54 -465 98 -616 26
-27 33 -28 119 -28 l91 0 -45 29 c-96 60 -174 170 -198 277 -15 66 -7 192 16
256 35 98 110 188 202 241 l44 26 -92 -1 c-75 0 -97 -4 -116 -19z"/>
<path d="M571 2017 c-121 -122 -172 -285 -146 -472 13 -95 62 -195 134 -278
l33 -37 97 0 c94 0 95 1 64 16 -84 42 -169 143 -203 244 -44 129 -25 283 49
397 44 67 65 88 139 136 l53 35 -90 0 -89 1 -41 -42z"/>
<path d="M927 2011 c-92 -98 -137 -210 -142 -346 -2 -50 3 -117 10 -151 16
-76 72 -186 122 -241 l38 -43 100 0 100 0 -40 19 c-48 22 -122 92 -158 148
-88 140 -90 331 -3 476 41 69 139 159 196 179 8 3 -29 6 -83 5 l-97 0 -43 -46z"/>
<path d="M1160 1200 l-45 -5 0 -98 c0 -57 4 -97 10 -98 14 -1 86 -1 111 0 48
2 73 48 48 88 -9 14 -10 24 -4 28 15 9 12 51 -4 64 -22 19 -67 27 -116 21z
m101 -41 c5 -8 9 -17 9 -21 0 -11 -53 -24 -95 -23 -40 1 -45 8 -30 51 5 16
105 10 116 -7z m3 -88 c16 -18 16 -20 -6 -35 -13 -9 -43 -16 -69 -16 -44 0
-47 2 -51 30 -3 17 -2 32 0 35 3 3 29 5 57 5 38 0 56 -5 69 -19z"/>
<path d="M254 1190 c-68 -27 -73 -146 -7 -181 41 -22 111 -16 139 13 29 29 40
82 25 121 -18 45 -100 70 -157 47z m122 -41 c26 -29 23 -87 -7 -110 -29 -22
-87 -25 -116 -4 -46 32 -35 120 16 131 14 3 30 7 36 8 20 5 55 -7 71 -25z"/>
<path d="M428 1110 c-3 -96 -2 -110 13 -110 5 0 9 36 9 81 l0 81 28 -34 c15
-18 41 -48 57 -66 17 -19 34 -40 38 -48 4 -8 15 -14 22 -14 12 0 15 19 15 100
0 60 -4 100 -10 100 -6 0 -10 -32 -10 -75 0 -41 -3 -75 -6 -75 -8 0 -53 51
-97 107 -17 23 -37 43 -44 43 -8 0 -13 -29 -15 -90z"/>
<path d="M630 1097 l0 -103 43 2 c117 4 160 50 135 141 -11 43 -51 63 -123 63
l-55 0 0 -103z m142 56 c25 -22 24 -84 -2 -108 -11 -10 -42 -20 -70 -23 l-50
-5 0 76 c0 51 4 77 13 80 24 8 91 -3 109 -20z"/>
<path d="M857 1105 c-26 -52 -47 -97 -47 -100 0 -3 6 -5 14 -5 7 0 19 13 25
29 11 26 16 28 62 28 45 -1 52 -4 65 -29 13 -26 34 -38 34 -20 0 17 -86 192
-95 192 -6 0 -32 -43 -58 -95z m93 -15 c0 -3 -16 -6 -35 -7 -19 0 -35 1 -35 3
0 2 8 19 17 39 l17 36 18 -33 c9 -18 17 -35 18 -38z"/>
<path d="M1310 1101 c0 -56 4 -103 10 -106 6 -4 10 12 10 39 0 41 3 46 23 47
12 0 32 2 45 3 25 3 65 -21 57 -34 -3 -5 -1 -20 4 -33 13 -33 43 -26 58 12 10
27 14 29 64 27 29 -2 54 -7 56 -13 7 -21 32 -48 38 -41 6 5 -45 127 -73 177
-17 30 -29 19 -72 -70 l-45 -91 -8 34 c-10 40 -10 45 -1 81 11 48 -17 67 -98
67 l-68 0 0 -99z m121 70 c9 0 20 -8 23 -17 11 -29 -13 -44 -70 -44 -53 0 -54
1 -54 29 0 32 10 39 55 36 17 -2 37 -3 46 -4z m182 -75 c1 -5 -13 -11 -30 -13
-37 -3 -40 5 -17 49 l16 30 15 -28 c8 -16 15 -33 16 -38z"/>
<path d="M1702 1118 c50 -108 53 -113 67 -113 6 0 31 44 56 98 28 63 39 97 31
97 -7 0 -30 -37 -51 -82 l-37 -83 -39 83 c-21 46 -44 82 -52 82 -10 0 -3 -23
25 -82z"/>
<path d="M1926 1163 c-10 -21 -26 -54 -36 -73 -34 -63 -41 -90 -26 -90 8 0 18
13 24 28 9 26 13 28 62 27 46 -1 54 -4 66 -28 8 -15 21 -27 29 -27 9 0 4 21
-21 73 -67 140 -73 146 -98 90z m64 -73 c0 -3 -16 -6 -35 -7 -39 -2 -43 6 -18
48 l17 29 18 -32 c9 -18 17 -35 18 -38z"/>
<path d="M869 868 c-1 -13 0 -35 1 -50 1 -20 -3 -28 -15 -28 -20 0 -31 28 -16
43 15 15 14 27 -3 21 -18 -7 -27 -51 -12 -63 6 -4 23 -11 39 -13 27 -5 27 -5
27 53 0 33 -4 59 -10 59 -5 0 -10 -10 -11 -22z"/>
<path d="M985 838 c1 -29 3 -56 4 -59 0 -3 15 -4 31 -1 22 3 32 11 37 30 7 28
-18 55 -43 45 -9 -3 -14 2 -14 16 0 12 -4 21 -8 21 -5 0 -8 -24 -7 -52z m58
-12 c7 -17 -18 -40 -33 -31 -5 3 -10 15 -10 26 0 23 35 27 43 5z"/>
<path d="M1535 869 c3 -13 0 -19 -8 -16 -21 8 -47 -13 -47 -38 0 -27 24 -45
51 -38 16 4 19 15 19 59 0 30 -4 54 -9 54 -6 0 -8 -9 -6 -21z m-1 -38 c9 -14
-4 -41 -19 -41 -15 0 -28 27 -19 41 3 5 11 9 19 9 8 0 16 -4 19 -9z"/>
<path d="M1570 880 c0 -5 5 -10 11 -10 5 0 7 5 4 10 -3 6 -8 10 -11 10 -2 0
-4 -4 -4 -10z"/>
<path d="M2226 871 c-30 -33 -17 -91 19 -91 18 0 25 7 30 30 13 57 -18 95 -49
61z m35 -11 c6 -43 0 -70 -15 -70 -14 0 -24 33 -18 63 4 18 31 24 33 7z"/>
<path d="M2529 858 c-3 -78 1 -104 10 -63 3 17 11 30 18 30 6 0 15 3 19 8 4 4
-2 7 -14 7 -13 0 -22 6 -22 15 0 8 9 15 20 15 11 0 20 4 20 10 0 5 -11 9 -25
8 -20 -2 -25 -8 -26 -30z"/>
<path d="M2610 888 c0 -2 -3 -27 -6 -55 -4 -35 -3 -53 4 -53 6 0 11 10 10 23
-2 44 4 51 15 20 16 -44 28 -45 42 -4 12 36 24 26 20 -16 -1 -13 2 -23 7 -23
11 0 8 84 -3 102 -5 8 -15 -3 -27 -32 l-19 -45 -12 37 c-10 30 -30 60 -31 46z"/>
<path d="M2145 870 c-3 -5 -1 -10 4 -10 6 0 11 -18 11 -40 0 -22 3 -40 8 -40
4 0 7 23 7 50 0 47 -14 66 -30 40z"/>
<path d="M2311 850 c-23 -32 -21 -53 4 -43 9 3 15 -1 15 -11 0 -22 18 -20 22
2 5 25 -3 82 -11 82 -4 0 -17 -14 -30 -30z m26 -15 c0 -8 -6 -15 -14 -15 -14
0 -17 12 -6 23 11 11 20 8 20 -8z"/>
<path d="M2425 870 c-3 -5 -1 -10 4 -10 6 0 11 -18 11 -40 0 -22 3 -40 8 -40
4 0 6 18 6 40 -2 58 -3 60 -13 60 -6 0 -13 -4 -16 -10z"/>
<path d="M263 820 c13 -45 21 -50 38 -18 l12 22 9 -24 c11 -30 26 -16 33 30
l5 35 -13 -35 -14 -35 -7 28 c-8 35 -22 35 -34 0 l-9 -28 -7 33 c-4 17 -11 32
-15 32 -5 0 -3 -18 2 -40z"/>
<path d="M382 820 c12 -45 24 -51 38 -17 l9 22 7 -22 c12 -41 28 -29 38 27 l6
35 -14 -30 -14 -30 -12 30 -12 30 -13 -35 -12 -35 -7 33 c-4 17 -11 32 -16 32
-4 0 -3 -18 2 -40z"/>
<path d="M493 844 c3 -11 8 -29 12 -41 9 -31 23 -29 32 4 l6 28 10 -28 c14
-44 29 -36 42 22 5 23 4 31 -4 27 -6 -4 -11 -19 -12 -34 -1 -26 -1 -26 -16 7
-11 27 -17 31 -24 20 -5 -8 -9 -22 -9 -32 0 -10 -4 -15 -10 -12 -5 3 -10 15
-10 25 0 10 -5 22 -11 26 -7 4 -9 0 -6 -12z"/>
<path d="M656 847 c-26 -19 -18 -61 13 -65 42 -6 62 46 27 70 -15 11 -20 10
-40 -5z m44 -34 c0 -18 -28 -29 -42 -15 -7 7 -6 17 2 32 9 17 14 19 26 9 8 -6
14 -18 14 -26z"/>
<path d="M748 853 c-13 -3 -18 -15 -18 -39 0 -19 5 -34 10 -34 6 0 10 14 10
30 0 20 5 30 15 30 15 0 19 -10 16 -42 -1 -10 3 -18 8 -18 17 0 13 47 -5 64
-8 9 -16 15 -17 15 -1 -1 -10 -3 -19 -6z"/>
<path d="M919 849 c-10 -6 -8 -9 11 -9 24 -1 24 -1 5 -12 -41 -23 -41 -51 1
-45 13 2 24 6 24 10 0 4 0 18 0 31 0 27 -20 39 -41 25z m23 -51 c-6 -6 -15 -8
-19 -4 -4 4 -1 11 7 16 19 12 27 3 12 -12z"/>
<path d="M1079 841 c0 -9 -2 -24 -4 -33 -2 -10 1 -20 6 -24 5 -3 9 6 9 20 0
14 5 28 10 31 15 9 12 22 -5 22 -8 0 -15 -7 -16 -16z"/>
<path d="M1135 850 c-4 -6 -3 -10 2 -9 28 5 35 -3 13 -14 -33 -17 -32 -41 3
-45 23 -3 27 0 27 22 0 48 -27 75 -45 46z m26 -53 c-13 -13 -26 -3 -16 12 3 6
11 8 17 5 6 -4 6 -10 -1 -17z"/>
<path d="M1198 854 c-7 -12 19 -74 31 -74 10 0 36 69 28 76 -2 3 -10 -10 -18
-27 l-13 -32 -11 33 c-6 19 -14 30 -17 24z"/>
<path d="M1289 849 c-10 -6 -8 -9 11 -9 l25 -1 -28 -15 c-34 -19 -31 -36 9
-45 28 -5 30 -4 28 25 -1 17 -2 34 -3 37 -2 12 -28 17 -42 8z m31 -44 c0 -8
-7 -15 -15 -15 -26 0 -18 20 13 29 1 1 2 -6 2 -14z"/>
<path d="M1355 819 c-1 -21 3 -39 7 -39 4 0 8 14 8 30 0 17 5 30 10 30 18 0
11 16 -7 17 -14 1 -18 -7 -18 -38z"/>
<path d="M1414 849 c-3 -5 5 -9 18 -9 22 -1 22 -2 -5 -16 -34 -18 -31 -38 6
-42 25 -3 27 0 27 31 0 26 -5 36 -20 40 -11 3 -23 1 -26 -4z m31 -49 c-3 -5
-10 -10 -16 -10 -5 0 -9 5 -9 10 0 6 7 10 16 10 8 0 12 -4 9 -10z"/>
<path d="M1572 820 c-1 -22 3 -40 8 -40 12 0 13 67 2 74 -5 3 -9 -13 -10 -34z"/>
<path d="M1616 838 c-18 -25 -7 -53 23 -61 36 -9 57 43 29 71 -18 18 -35 15
-52 -10z m51 -32 c-8 -20 -36 -21 -43 -1 -4 8 0 22 7 31 11 13 14 13 27 0 8
-8 12 -22 9 -30z"/>
<path d="M1737 846 c-28 -21 -13 -66 22 -65 25 0 25 0 4 9 -37 15 -29 57 10
51 4 0 7 4 7 9 0 14 -22 12 -43 -4z"/>
<path d="M1806 844 c-29 -29 -12 -64 31 -64 31 0 44 47 18 67 -24 17 -30 16
-49 -3z m47 -34 c-3 -11 -12 -20 -19 -20 -18 0 -28 24 -20 45 9 25 46 1 39
-25z"/>
<path d="M1889 856 c-1 -1 -3 -18 -4 -38 -3 -46 12 -51 17 -5 2 17 8 32 13 32
6 0 11 -15 13 -32 2 -18 8 -33 14 -33 6 0 8 9 5 19 -2 10 -1 24 3 31 11 18 30
2 30 -26 0 -13 4 -24 9 -24 9 0 4 60 -5 69 -9 10 -34 9 -34 -1 0 -7 -4 -7 -12
-1 -10 8 -42 14 -49 9z"/>
<path d="M2050 822 c0 -5 7 -9 15 -9 8 0 15 4 15 9 0 4 -7 8 -15 8 -8 0 -15
-4 -15 -8z"/>
<path d="M605 790 c-3 -5 -1 -10 4 -10 6 0 11 5 11 10 0 6 -2 10 -4 10 -3 0
-8 -4 -11 -10z"/>
<path d="M1695 790 c-3 -5 -1 -10 4 -10 6 0 11 5 11 10 0 6 -2 10 -4 10 -3 0
-8 -4 -11 -10z"/>
<path d="M2380 790 c0 -5 5 -10 11 -10 5 0 7 5 4 10 -3 6 -8 10 -11 10 -2 0
-4 -4 -4 -10z"/>
</g>
</svg>
