<svg xmlns="http://www.w3.org/2000/svg" xmlns:xlink="http://www.w3.org/1999/xlink" viewBox="0 0 19.5 13.85"><defs><linearGradient id="Degradado_sin_nombre_24" x1="0.01" y1="3.55" x2="19.5" y2="3.55" gradientUnits="userSpaceOnUse"><stop offset="0" stop-color="#1d71b8"/><stop offset="0.31" stop-color="#1b6eb5"/><stop offset="0.55" stop-color="#1664ab"/><stop offset="0.77" stop-color="#0e549b"/><stop offset="0.97" stop-color="#023c83"/><stop offset="1" stop-color="#00387f"/></linearGradient><linearGradient id="Degradado_sin_nombre_24-2" x1="0" y1="8.68" x2="19.5" y2="8.68" xlink:href="#Degradado_sin_nombre_24"/></defs><g id="Layer_2" data-name="Layer 2"><g id="Capa_1" data-name="Capa 1"><path d="M9.3,7,0,1.33A1.5,1.5,0,0,1,1.5,0H18a1.5,1.5,0,0,1,1.5,1.46L10.43,7A1.09,1.09,0,0,1,9.3,7Z" fill="url(#Degradado_sin_nombre_24)"/><path d="M19.5,3.66v8.69a1.5,1.5,0,0,1-1.5,1.5H1.5A1.5,1.5,0,0,1,0,12.35V3.52L9.29,9.24a1.13,1.13,0,0,0,1.15,0Z" fill="url(#Degradado_sin_nombre_24-2)"/></g></g></svg>