<svg xmlns="http://www.w3.org/2000/svg" xmlns:xlink="http://www.w3.org/1999/xlink" viewBox="0 0 18.97 24.41"><defs><linearGradient id="Degradado_sin_nombre_24" y1="12.21" x2="15.6" y2="12.21" gradientUnits="userSpaceOnUse"><stop offset="0" stop-color="#1d71b8"/><stop offset="0.31" stop-color="#1b6eb5"/><stop offset="0.55" stop-color="#1664ab"/><stop offset="0.77" stop-color="#0e549b"/><stop offset="0.97" stop-color="#023c83"/><stop offset="1" stop-color="#00387f"/></linearGradient><linearGradient id="Degradado_sin_nombre_24-2" x1="13.75" y1="9.46" x2="18.97" y2="9.46" xlink:href="#Degradado_sin_nombre_24"/><linearGradient id="Degradado_sin_nombre_24-3" x1="12.22" y1="10.32" x2="16.26" y2="10.32" xlink:href="#Degradado_sin_nombre_24"/><linearGradient id="Degradado_sin_nombre_24-4" x1="11.16" y1="10.92" x2="13.52" y2="10.92" xlink:href="#Degradado_sin_nombre_24"/></defs><g id="Layer_2" data-name="Layer 2"><g id="Capa_1" data-name="Capa 1"><path d="M11,16.87c-1.4,1.05-2,1.95-2.68,1-.75-.77-4-8.58-4-9.71C4.15,7,5.22,7.22,7,7S7.23.73,7.15.7s-2.71-2-5.45.87S-.09,10,1.79,14.8h0l0,.08,0,.08h0c2.05,4.74,5.31,9.33,9.26,9.45s4.45-3.14,4.48-3.23S12.44,15.82,11,16.87" fill="url(#Degradado_sin_nombre_24)"/><path d="M14,4.61a8.56,8.56,0,0,1,4.09,10" fill="none" stroke-miterlimit="10" stroke="url(#Degradado_sin_nombre_24-2)"/><path d="M12.45,6.78a6.31,6.31,0,0,1,3,7.38" fill="none" stroke-miterlimit="10" stroke="url(#Degradado_sin_nombre_24-3)"/><path d="M11.39,9.26a3.09,3.09,0,0,1,1.48,3.63" fill="none" stroke-miterlimit="10" stroke="url(#Degradado_sin_nombre_24-4)"/></g></g></svg>