<svg xmlns="http://www.w3.org/2000/svg" xmlns:xlink="http://www.w3.org/1999/xlink" viewBox="0 0 23.51 24.74"><defs><linearGradient id="Degradado_sin_nombre_24" x1="0.01" y1="12.37" x2="23.51" y2="12.37" gradientUnits="userSpaceOnUse"><stop offset="0" stop-color="#1d71b8"/><stop offset="0.31" stop-color="#1b6eb5"/><stop offset="0.55" stop-color="#1664ab"/><stop offset="0.77" stop-color="#0e549b"/><stop offset="0.97" stop-color="#023c83"/><stop offset="1" stop-color="#00387f"/></linearGradient><linearGradient id="Degradado_sin_nombre_24-2" x1="0.34" y1="11.49" x2="1.13" y2="11.49" xlink:href="#Degradado_sin_nombre_24"/><linearGradient id="Degradado_sin_nombre_24-3" x1="1.64" y1="11.44" x2="2.51" y2="11.44" xlink:href="#Degradado_sin_nombre_24"/><linearGradient id="Degradado_sin_nombre_24-4" x1="1.64" y1="11.74" x2="2.14" y2="11.74" xlink:href="#Degradado_sin_nombre_24"/><linearGradient id="Degradado_sin_nombre_24-5" x1="1.64" y1="11.75" x2="1.88" y2="11.75" xlink:href="#Degradado_sin_nombre_24"/><linearGradient id="Degradado_sin_nombre_24-6" x1="0.78" y1="18.67" x2="0.83" y2="18.67" xlink:href="#Degradado_sin_nombre_24"/><linearGradient id="Degradado_sin_nombre_24-7" x1="0.66" y1="11.53" x2="0.87" y2="11.53" xlink:href="#Degradado_sin_nombre_24"/><linearGradient id="Degradado_sin_nombre_24-8" x1="0.02" y1="12.81" x2="0.05" y2="12.81" xlink:href="#Degradado_sin_nombre_24"/><linearGradient id="Degradado_sin_nombre_24-9" x1="0.02" y1="15.89" x2="0.05" y2="15.89" xlink:href="#Degradado_sin_nombre_24"/><linearGradient id="Degradado_sin_nombre_24-10" x1="0.78" y1="22.53" x2="0.82" y2="22.53" xlink:href="#Degradado_sin_nombre_24"/><linearGradient id="Degradado_sin_nombre_24-11" x1="0.78" y1="13.81" x2="0.82" y2="13.81" xlink:href="#Degradado_sin_nombre_24"/><linearGradient id="Degradado_sin_nombre_24-12" x1="0.02" y1="20.11" x2="0.05" y2="20.11" xlink:href="#Degradado_sin_nombre_24"/><linearGradient id="Degradado_sin_nombre_24-13" x1="0" y1="23.88" x2="0.84" y2="23.88" xlink:href="#Degradado_sin_nombre_24"/><linearGradient id="Degradado_sin_nombre_24-14" x1="1.64" y1="2.38" x2="1.81" y2="2.38" xlink:href="#Degradado_sin_nombre_24"/><linearGradient id="Degradado_sin_nombre_24-15" x1="0.02" y1="21.59" x2="0.27" y2="21.59" xlink:href="#Degradado_sin_nombre_24"/><linearGradient id="Degradado_sin_nombre_24-16" x1="3.26" y1="8.2" x2="18.76" y2="8.2" xlink:href="#Degradado_sin_nombre_24"/><linearGradient id="Degradado_sin_nombre_24-17" x1="18.02" y1="11.42" x2="20.2" y2="11.42" xlink:href="#Degradado_sin_nombre_24"/><linearGradient id="Degradado_sin_nombre_24-18" x1="10.2" y1="19.87" x2="11.66" y2="19.87" xlink:href="#Degradado_sin_nombre_24"/><linearGradient id="Degradado_sin_nombre_24-19" x1="18.75" y1="12.02" x2="19.82" y2="12.02" xlink:href="#Degradado_sin_nombre_24"/><linearGradient id="Degradado_sin_nombre_24-20" x1="9.88" y1="2.32" x2="10.83" y2="2.32" xlink:href="#Degradado_sin_nombre_24"/><linearGradient id="Degradado_sin_nombre_24-21" x1="11.36" y1="2.44" x2="17.94" y2="2.44" xlink:href="#Degradado_sin_nombre_24"/><linearGradient id="Degradado_sin_nombre_24-22" x1="3.29" y1="3.03" x2="6.82" y2="3.03" xlink:href="#Degradado_sin_nombre_24"/><linearGradient id="Degradado_sin_nombre_24-23" x1="10.52" y1="1.67" x2="15.69" y2="1.67" xlink:href="#Degradado_sin_nombre_24"/><linearGradient id="Degradado_sin_nombre_24-24" x1="1.7" y1="1.44" x2="2.14" y2="1.44" xlink:href="#Degradado_sin_nombre_24"/><linearGradient id="Degradado_sin_nombre_24-25" x1="19.58" y1="4.38" x2="19.61" y2="4.38" xlink:href="#Degradado_sin_nombre_24"/><linearGradient id="Degradado_sin_nombre_24-26" x1="18.73" y1="5.39" x2="18.76" y2="5.39" xlink:href="#Degradado_sin_nombre_24"/><linearGradient id="Degradado_sin_nombre_24-27" x1="4.05" y1="11.46" x2="4.09" y2="11.46" xlink:href="#Degradado_sin_nombre_24"/><linearGradient id="Degradado_sin_nombre_24-28" x1="4.05" y1="7.01" x2="4.09" y2="7.01" xlink:href="#Degradado_sin_nombre_24"/><linearGradient id="Degradado_sin_nombre_24-29" x1="3.29" y1="11.4" x2="3.32" y2="11.4" xlink:href="#Degradado_sin_nombre_24"/><linearGradient id="Degradado_sin_nombre_24-30" x1="3.29" y1="7.01" x2="3.32" y2="7.01" xlink:href="#Degradado_sin_nombre_24"/><linearGradient id="Degradado_sin_nombre_24-31" x1="0.23" y1="21.3" x2="0.72" y2="21.3" xlink:href="#Degradado_sin_nombre_24"/><linearGradient id="Degradado_sin_nombre_24-32" x1="1.7" y1="2.03" x2="2.23" y2="2.03" xlink:href="#Degradado_sin_nombre_24"/><linearGradient id="Degradado_sin_nombre_24-33" x1="18.27" y1="3.26" x2="18.76" y2="3.26" xlink:href="#Degradado_sin_nombre_24"/><linearGradient id="Degradado_sin_nombre_24-34" x1="6.86" y1="1.68" x2="10.16" y2="1.68" xlink:href="#Degradado_sin_nombre_24"/><linearGradient id="Degradado_sin_nombre_24-35" x1="6.12" y1="2.44" x2="9.24" y2="2.44" xlink:href="#Degradado_sin_nombre_24"/><linearGradient id="Degradado_sin_nombre_24-36" x1="19.58" y1="1.43" x2="19.82" y2="1.43" xlink:href="#Degradado_sin_nombre_24"/><linearGradient id="Degradado_sin_nombre_24-37" x1="17.94" y1="9.54" x2="17.99" y2="9.54" xlink:href="#Degradado_sin_nombre_24"/><linearGradient id="Degradado_sin_nombre_24-38" x1="17.93" y1="6.99" x2="17.99" y2="6.99" xlink:href="#Degradado_sin_nombre_24"/><linearGradient id="Degradado_sin_nombre_24-39" x1="18.71" y1="8.74" x2="18.76" y2="8.74" xlink:href="#Degradado_sin_nombre_24"/><linearGradient id="Degradado_sin_nombre_24-40" x1="19.34" y1="8.48" x2="19.61" y2="8.48" xlink:href="#Degradado_sin_nombre_24"/><linearGradient id="Degradado_sin_nombre_24-41" x1="4.11" y1="2.44" x2="6.06" y2="2.44" xlink:href="#Degradado_sin_nombre_24"/><linearGradient id="Degradado_sin_nombre_24-42" x1="19.59" y1="2.1" x2="19.91" y2="2.1" xlink:href="#Degradado_sin_nombre_24"/><linearGradient id="Degradado_sin_nombre_24-43" x1="2.31" y1="1.52" x2="2.46" y2="1.52" xlink:href="#Degradado_sin_nombre_24"/><linearGradient id="Degradado_sin_nombre_24-44" x1="2.11" y1="1.79" x2="2.46" y2="1.79" xlink:href="#Degradado_sin_nombre_24"/><linearGradient id="Degradado_sin_nombre_24-45" x1="19.78" y1="1.79" x2="20.1" y2="1.79" xlink:href="#Degradado_sin_nombre_24"/><linearGradient id="Degradado_sin_nombre_24-46" x1="19.59" y1="7.02" x2="19.62" y2="7.02" xlink:href="#Degradado_sin_nombre_24"/><linearGradient id="Degradado_sin_nombre_24-47" x1="5.31" y1="5.31" x2="9.39" y2="5.31" xlink:href="#Degradado_sin_nombre_24"/><linearGradient id="Degradado_sin_nombre_24-48" x1="10.6" y1="3.69" x2="16.72" y2="3.69" xlink:href="#Degradado_sin_nombre_24"/><linearGradient id="Degradado_sin_nombre_24-49" x1="10.64" y1="8.98" x2="16.71" y2="8.98" xlink:href="#Degradado_sin_nombre_24"/><linearGradient id="Degradado_sin_nombre_24-50" x1="10.6" y1="5.31" x2="15.51" y2="5.31" xlink:href="#Degradado_sin_nombre_24"/><linearGradient id="Degradado_sin_nombre_24-51" x1="10.61" y1="10.62" x2="14.69" y2="10.62" xlink:href="#Degradado_sin_nombre_24"/><linearGradient id="Degradado_sin_nombre_24-52" x1="6.67" y1="10" x2="9.27" y2="10" xlink:href="#Degradado_sin_nombre_24"/><linearGradient id="Degradado_sin_nombre_24-53" x1="6.67" y1="4.7" x2="9.27" y2="4.7" xlink:href="#Degradado_sin_nombre_24"/><linearGradient id="Degradado_sin_nombre_24-54" x1="10.2" y1="19.94" x2="11.18" y2="19.94" xlink:href="#Degradado_sin_nombre_24"/><linearGradient id="Degradado_sin_nombre_24-55" x1="12.66" y1="8.98" x2="16.73" y2="8.98" xlink:href="#Degradado_sin_nombre_24"/><linearGradient id="Degradado_sin_nombre_24-56" x1="10.21" y1="20.11" x2="10.98" y2="20.11" xlink:href="#Degradado_sin_nombre_24"/><linearGradient id="Degradado_sin_nombre_24-57" x1="13.4" y1="3.67" x2="16.73" y2="3.67" xlink:href="#Degradado_sin_nombre_24"/><linearGradient id="Degradado_sin_nombre_24-58" x1="10.2" y1="20.25" x2="10.74" y2="20.25" xlink:href="#Degradado_sin_nombre_24"/><linearGradient id="Degradado_sin_nombre_24-59" x1="10.61" y1="8.98" x2="12.36" y2="8.98" xlink:href="#Degradado_sin_nombre_24"/><linearGradient id="Degradado_sin_nombre_24-60" x1="11.22" y1="3.3" x2="14.04" y2="3.3" xlink:href="#Degradado_sin_nombre_24"/><linearGradient id="Degradado_sin_nombre_24-61" x1="17.94" y1="9.4" x2="17.97" y2="9.4" xlink:href="#Degradado_sin_nombre_24"/><linearGradient id="Degradado_sin_nombre_24-62" x1="17.95" y1="7.06" x2="17.97" y2="7.06" xlink:href="#Degradado_sin_nombre_24"/><linearGradient id="Degradado_sin_nombre_24-63" x1="18.34" y1="11.2" x2="19.11" y2="11.2" xlink:href="#Degradado_sin_nombre_24"/><linearGradient id="Degradado_sin_nombre_24-64" x1="18.99" y1="11.98" x2="19.55" y2="11.98" xlink:href="#Degradado_sin_nombre_24"/></defs><g id="Layer_2" data-name="Layer 2"><g id="Capa_1" data-name="Capa 1"><path d="M1.64,2.1a6,6,0,0,1,0-1A1.2,1.2,0,0,1,2.91,0H15.2C16.47,0,17.75,0,19,0a1.29,1.29,0,0,1,1.38,1.38c0,.72,0,1.44,0,2.16v5a1.5,1.5,0,0,1,.63,0,1.23,1.23,0,0,1,1,.83,1.19,1.19,0,0,1-.25,1.26c-.41.43-.83.84-1.25,1.26a.33.33,0,0,0-.11.25c0,1.23,0,2.46,0,3.68a.56.56,0,0,0,.07.26,6.38,6.38,0,0,0,1.15,1.28l1.84,1.84c.07.07.07.11,0,.17a5.29,5.29,0,0,0-.41.41c-.08.09-.11.07-.18,0l-2-2-.37-.37a6.67,6.67,0,0,1-1.11-1.52c-.38-.57-.73-1.15-1.11-1.74l-.55.57-.39.38c-.06.05-.05.08,0,.14l.24.37A1.13,1.13,0,0,1,17.43,17a1.16,1.16,0,0,1-1.42.19c-.58-.33-1.15-.67-1.73-1a.49.49,0,0,0-.57.79c.61.46,1.23.93,1.86,1.39a1.92,1.92,0,0,0,1.18.37h1a1,1,0,0,1,.65.24,10.92,10.92,0,0,1,.9.9.29.29,0,0,0,.09.15.19.19,0,0,1,.06.19c.06,0,0-.1.06-.14L21,21.61l2.5,2.49c.07.07.08.11,0,.18a5.14,5.14,0,0,0-.4.41c-.08.08-.11.07-.18,0L20.49,22.3l-.09-.09a1.5,1.5,0,0,1-.1.71,1.22,1.22,0,0,1-1.17.75H4.64c-.12,0-.15,0-.15.14s0,.38,0,.58,0,.1-.1.1H3.78c-.07,0-.11,0-.11-.1,0-1.39,0-2.78,0-4.17a3,3,0,0,1,.91-2.12,2.36,2.36,0,0,0,.72-1.77,1.39,1.39,0,0,1,.35-1c.37-.42.72-.85,1.08-1.28a.6.6,0,0,0,0-.77A.62.62,0,0,0,6.07,13a.71.71,0,0,0-.27.18L3.21,16.07a1.52,1.52,0,0,1-.32.3.81.81,0,0,1-1.25-.68c0-.63,0-1.25,0-1.87v-1.4A1.3,1.3,0,0,0,2,12.08a.69.69,0,0,0-.2-.92.54.54,0,0,1-.16-.1v-.23a.79.79,0,0,1,.68.6.86.86,0,0,1,0,.59c0,.07-.06.13-.08.22s.12-.11.17-.18.05-.11.12,0a.45.45,0,0,1,0,.23v3.09a.72.72,0,0,0,0,.2c.24-.29.5-.52.7-.81,0-.06,0-.13,0-.2,0-.45,0-.9,0-1.35a.61.61,0,0,0,0-.19q0-1.59,0-3.18a.59.59,0,0,0,0-.19,5.75,5.75,0,0,1,0-.83.61.61,0,0,0,0-.19c0-1.06,0-2.12,0-3.19a.55.55,0,0,0,0-.18,5.75,5.75,0,0,1,0-.83.83.83,0,0,0,0-.22c0-.76,0-1.52,0-2.28,0-.24,0-.25.24-.25H6.59a.83.83,0,0,0,.22,0h.05a.83.83,0,0,0,.22,0H9.71a1.62,1.62,0,0,1,.22,0c.07,0,.06.07,0,.1l-.19.1a.94.94,0,0,0-.41.45c0,.07-.05.14-.13.16H6.32a.62.62,0,0,0-.19,0,.11.11,0,0,1-.08,0H4.34a.23.23,0,0,0-.18,0,.45.45,0,0,0,0,.23V4.93a2.17,2.17,0,0,1,0,.26.62.62,0,0,0,0,.19V8.63a.55.55,0,0,0,0,.18,5.48,5.48,0,0,1,0,.81.55.55,0,0,0,0,.18v3.31a.43.43,0,0,0,0,.16,2.75,2.75,0,0,1,0,.5,5.22,5.22,0,0,0,.39-.43c.22-.24.45-.48.66-.73a1.11,1.11,0,0,1,.32-.25c.07,0,.1-.08,0-.15a1.38,1.38,0,0,1-.26-.9c0-.53,0-1.05,0-1.58A1.23,1.23,0,0,1,6.45,8.54H7.2c.16,0,.19,0,.2.19v.55c0,.1-.05.16-.17.15a4.56,4.56,0,0,0-.64,0,.41.41,0,0,0-.43.44c0,.5,0,1,0,1.5,0,.28.15.41.44.41H8.09c.3,0,.43-.12.43-.42v-.57c0-.19,0-.21.22-.22h.5c.15,0,.18,0,.19.19s0,.51,0,.76a1.25,1.25,0,0,1-1.25,1.17H7.59a.22.22,0,0,0-.14,0c0,.06,0,.09.06.13a1.47,1.47,0,0,1,.24.81c0,.19,0,.2.2.19a1.6,1.6,0,0,1,.83.15,1.24,1.24,0,0,1,.65,1c0,.58,0,1.15,0,1.73A1.27,1.27,0,0,1,8.18,18c-.54,0-1.07,0-1.61,0A1.27,1.27,0,0,1,6,17.87c-.11-.05-.17,0-.22.07a3.52,3.52,0,0,1-.59.8,2.28,2.28,0,0,0-.64,1.54c0,.25,0,.49,0,.74s0,.17.16.16a1.15,1.15,0,0,1,.32,0H9.73a.8.8,0,0,0,.79,0H17.7a.38.38,0,0,0,.15,0s0-.08,0-.13a11.83,11.83,0,0,1,0-1.19.23.23,0,0,0-.23-.23h-.42a6.64,6.64,0,0,1-.89,0A3,3,0,0,1,14.85,19l-.62-.47a.16.16,0,0,0-.24,0c-.43.4-.83.82-1.24,1.23l-.66.65s-.05.05-.09.05a1.45,1.45,0,0,1-.62,0,.16.16,0,0,1,0-.09,1.17,1.17,0,0,0-.26-.59c-.09-.11-.07-.14.06-.15s.31,0,.47,0a.69.69,0,0,0,.13-.11l1.5-1.5c.11-.11.11-.11,0-.2a1.35,1.35,0,0,1-.37-.42c-.06-.11-.11-.08-.18,0s-.36.37-.55.55-.59.61-.9.9a.51.51,0,0,0-.2.45,1.4,1.4,0,0,1,0,.29c0,.11-.07.09-.13.05a1.08,1.08,0,0,0-.42-.16,1.41,1.41,0,0,0-.29,0,1.73,1.73,0,0,1,0-.45.72.72,0,0,1,.26-.65c.47-.44.92-.91,1.38-1.37.13-.13.11-.12,0-.28a.44.44,0,0,0-.52-.28,3.49,3.49,0,0,1-.56,0c-.17,0-.2,0-.2-.19s0-.37,0-.55.06-.16.17-.16h.77a.24.24,0,0,0,.26-.18c.21-.53.43-1.06.63-1.58s.29-.76.45-1.13A1.26,1.26,0,0,1,14,11.79c.73,0,1.45,0,2.18,0a2.39,2.39,0,0,1,.53.06.21.21,0,0,0,.22-.07c.32-.34.67-.65,1-1a.28.28,0,0,0,0-.09V8.4a.57.57,0,0,0,0-.13.45.45,0,0,1,0-.11A.47.47,0,0,0,18,8V6a.41.41,0,0,0,0-.16,10.73,10.73,0,0,1,0-1.7,3.62,3.62,0,0,0,0-.57,6.28,6.28,0,0,1,0-1,.11.11,0,0,0,0-.08s-.1,0-.15,0H11.56a.65.65,0,0,0-.19,0,2.53,2.53,0,0,1-.55,0c-.09,0,0-.12-.1-.17a.6.6,0,0,0-.73,0c-.07,0,0,.12-.07.15a1.14,1.14,0,0,1-.45,0s0,0,0-.08a.36.36,0,0,0,.15-.15.9.9,0,0,1,1.39,0s.07.1.13.13.08,0,.11,0,0-.06,0-.09a1,1,0,0,0-.43-.46.4.4,0,0,1-.13-.07c0-.05,0-.07,0-.09a1.92,1.92,0,0,1,.24,0h4.51a.72.72,0,0,0,.25,0c.23,0,.46,0,.69,0,.71,0,1.43,0,2.15,0,.08,0,.15,0,.22,0a.16.16,0,0,1,0,.12c0,.47,0,1,0,1.42,0,.05,0,.09-.09,0l-.08-.08c-.07-.06-.15-.1-.24,0a.17.17,0,0,0,0,.21.18.18,0,0,0,.24.08c-.06,0-.1,0-.14,0a.13.13,0,0,1-.08-.18c0-.08.09-.1.18-.07a.58.58,0,0,1,.24.2.09.09,0,0,1,0,0V7.31s0,.07,0,.1a.28.28,0,0,1,0,.09.3.3,0,0,0,0,.1V9.93c.06,0,.08,0,.11-.06a3,3,0,0,1,.49-.45.42.42,0,0,0,.2-.41c0-.44,0-.88,0-1.32a1.21,1.21,0,0,0,0-.19.11.11,0,0,1,0-.08,5.47,5.47,0,0,0,0-.81.11.11,0,0,1,0-.08.83.83,0,0,0,0-.22V2.51a1.93,1.93,0,0,1,0-.24c0-.08.08-.06.14-.07s.16,0,.11-.19c0,.07,0,.16-.08.17a.23.23,0,0,1-.2-.11,1.13,1.13,0,0,1,0-.41s.07,0,.1-.06a.24.24,0,0,0,.11-.2c0-.08-.05-.12-.12-.15s-.09,0-.11-.06A.49.49,0,0,0,19,.88H3c-.32,0-.42.09-.48.4a0,0,0,0,1,0,0c-.16.13-.14.27,0,.41a.29.29,0,0,1,0,.16c0,.06-.09,0-.13,0s-.1-.11-.16-.15.14.19.27.22,0,.05,0,.08a1,1,0,0,1,0,.25V10.9a1,1,0,0,1,0,.25c0,.06,0,.08-.1,0a.16.16,0,0,1,0-.09.9.9,0,0,0-.58-.48.19.19,0,0,1-.13-.06v-.32a4,4,0,0,0-.51.38,1,1,0,0,0-.75,1,.91.91,0,0,0,.43.74v.06s0,.06,0,.08V15.1s0,.06,0,.08a5.52,5.52,0,0,1,0,.58c0,.38,0,.76,0,1.14a.06.06,0,0,1,0-.06v3.81a.15.15,0,0,0,0,.07,1.3,1.3,0,0,1,0,.44c0,.05,0,.11,0,.16v2.45s0-.07,0-.11a.87.87,0,0,1,0,.36,1.16,1.16,0,0,0,0,.32c0,.08,0,.12-.11.11H.14c-.09,0-.11,0-.11-.11V23.4a.34.34,0,0,0,0-.14c0-.56,0-1.12,0-1.68.08,0,.09.12.17.14C0,21.63.07,21.45,0,21.31V19a.34.34,0,0,0,0-.14c0-.51,0-1,0-1.54,0,0,0-.06,0-.1V14.58s0-.07,0-.1v-.06a.21.21,0,0,0,0-.11v-3a.25.25,0,0,0,0-.08A2,2,0,0,1,.86,9.77c.23-.18.45-.35.68-.51a.2.2,0,0,0,.1-.19V2.43c.11,0,.07.1.11.15C1.73,2.41,1.63,2.27,1.64,2.1Z" fill="url(#Degradado_sin_nombre_24)"/><path d="M.81,12.38A.53.53,0,0,1,.44,12a1,1,0,0,1,.13-1.1A1.14,1.14,0,0,1,1,10.6a.09.09,0,0,1,.1,0,2,2,0,0,0-.26.48.73.73,0,0,0-.09.81,4.34,4.34,0,0,1,0-.51s0-.09.06-.1A9.85,9.85,0,0,1,.81,12.38Z" fill="url(#Degradado_sin_nombre_24-2)"/><path d="M1.64,10.55a.89.89,0,0,1,.75.55s0,.08.07.1a.11.11,0,0,1,0,.09,3.21,3.21,0,0,1,0,.62.1.1,0,0,1,0,.09c-.09,0-.06.13-.12.17s-.06.08-.1.11-.05.05-.09,0,0-.07,0-.1.05-.12.08-.19a.82.82,0,0,0-.49-1.15l-.1,0Z" fill="url(#Degradado_sin_nombre_24-3)"/><path d="M1.64,11.06a.7.7,0,0,1,.5.7c0,.24-.26.64-.5.66v-.24A.67.67,0,0,1,1.73,12a.43.43,0,0,0,0-.59l-.08-.12Z" fill="url(#Degradado_sin_nombre_24-4)"/><path d="M1.64,11.33a.49.49,0,0,1,0,.85Z" fill="url(#Degradado_sin_nombre_24-5)"/><path d="M.81,20.72a.14.14,0,0,1,0-.11V16.7l0-.07,0,.27v3.37A2.26,2.26,0,0,1,.81,20.72Z" fill="url(#Degradado_sin_nombre_24-6)"/><path d="M.84,11.29a2.36,2.36,0,0,0,0,.53V12a.75.75,0,0,1,0-.94s0,0,0,0Z" fill="url(#Degradado_sin_nombre_24-7)"/><path d="M0,11.21s0,.09,0,.14v2.93s0,.1,0,.14Z" fill="url(#Degradado_sin_nombre_24-8)"/><path d="M0,14.48s0,.09,0,.14v2.54c0,.05,0,.1,0,.14Z" fill="url(#Degradado_sin_nombre_24-9)"/><path d="M.82,23.66l0,.24s0-.07,0-.1V21.32c0-.05,0-.11,0-.16,0,.13,0,.26,0,.39Z" fill="url(#Degradado_sin_nombre_24-10)"/><path d="M.81,15.18s0-.09,0-.14V12.58c0-.05,0-.1,0-.14v2C.82,14.69.82,14.93.81,15.18Z" fill="url(#Degradado_sin_nombre_24-11)"/><path d="M0,18.84c.05.05,0,.11,0,.17,0,.79,0,1.57,0,2.36H0Z" fill="url(#Degradado_sin_nombre_24-12)"/><path d="M0,23.26s0,.1,0,.15c0,.3,0,.59,0,.88,0,.11,0,.16.14.15a4.17,4.17,0,0,1,.5,0c.08,0,.1,0,.11-.1s0-.22,0-.32c0,.15.06.33,0,.43s-.25,0-.39,0-.3.05-.38,0,0-.24,0-.37S0,23.53,0,23.26Z" fill="url(#Degradado_sin_nombre_24-13)"/><path d="M1.64,2.1l0,0c0,.15.07.25.13.36s0,.09,0,.13-.05.06-.09,0,0,0,0-.08,0-.11,0-.14Z" fill="url(#Degradado_sin_nombre_24-14)"/><path d="M19.47,20.12a.57.57,0,0,1,0,.13s0,.1-.1.08,0-.06,0-.1,0-.09-.05-.13-.1-.09-.06-.18A1.34,1.34,0,0,1,19.47,20.12Z" fill="#69737a"/><path d="M0,21.37h0s.07,0,.05.06,0,.19.11.27.09.06,0,.1-.07,0-.1-.05A.43.43,0,0,1,0,21.58Z" fill="url(#Degradado_sin_nombre_24-15)"/><path d="M7.59,22h.06s.09,0,.14,0H12.9s.1,0,.14,0h.06s.08,0,.11,0h3.16a.25.25,0,0,1,.12,0,11,11,0,0,0,1.15,0,0,0,0,0,1,.06,0c.33,0,.66,0,1,0,.06,0,.08,0,.08-.07,0-.32,0-.65,0-1a0,0,0,0,1,0-.06v-.32s0,0,0,0l.72.71a.26.26,0,0,1,.07.19v.86a.42.42,0,0,1-.48.48H4.64c-.11,0-.15,0-.15-.15a4.87,4.87,0,0,0,0-.54c0-.05,0-.1,0-.14s.06,0,.1,0H7.49A.17.17,0,0,1,7.59,22Z" fill="#fdfefe"/><path d="M19.22,10.82l.53.54c.05.05.06.09,0,.14s-.13.15-.19.23l-.56.55c-.08.07-.14.18-.26.22l-1.82,1.81L15.44,15.8a.13.13,0,0,1-.19,0l-.72-.42.66-.64L18,11.92l0,0a.81.81,0,0,1,.27-.31,7.38,7.38,0,0,1,.74-.74S19.17,10.74,19.22,10.82Z" fill="#fefefe"/><path d="M8.57,15.93c0,.26,0,.52,0,.77a.39.39,0,0,1-.42.43H6.56a.39.39,0,0,1-.43-.41,4,4,0,0,1,0-.49.45.45,0,0,1,.12-.31l1-1.15a.18.18,0,0,1,.16-.08h.75a.41.41,0,0,1,.44.46C8.57,15.41,8.56,15.67,8.57,15.93Z" fill="#fdfefe"/><path d="M16.11,12.66,12.57,16.2a.42.42,0,0,1-.06-.47c.38-.93.75-1.87,1.12-2.8a.41.41,0,0,1,.4-.28h2.08Z" fill="#fefefe"/><path d="M11,19.48s0,0,0-.06a.81.81,0,0,1,.32-.81c.5-.47,1-1,1.47-1.46a1.52,1.52,0,0,0,.59.66l-1.74,1.77c-.18,0-.37,0-.55,0S11,19.53,11,19.48Z" fill="#fefefe"/><path d="M3.26,14.77v-13c0-.12,0-.15.15-.15H18.63s.09,0,.13,0c-1,0-2,0-2.93,0h-.14a.55.55,0,0,1-.18,0H10.64s0,0,0,0a1.05,1.05,0,0,1,.62.55s.11.13,0,.17a.17.17,0,0,1-.24-.06A.9.9,0,0,0,10.5,2a.79.79,0,0,0-.86.35.27.27,0,0,1-.19.14.38.38,0,0,1-.21,0s0,0,0,0A1.09,1.09,0,0,1,10,1.69s0,0,0,0,0,0,0,0H7a.86.86,0,0,1-.16,0h0a.45.45,0,0,1-.16,0H3.45c-.12,0-.15,0-.15.15V4.23a.86.86,0,0,1,0,.16,5.89,5.89,0,0,0,0,.84c0,.14,0,.28,0,.43v3a.42.42,0,0,1,0,.16q0,.42,0,.84a.17.17,0,0,1,0,.1v3.35a.21.21,0,0,1,0,.11c0,.48,0,1,0,1.44C3.28,14.67,3.31,14.73,3.26,14.77Z" fill="url(#Degradado_sin_nombre_24-16)"/><path d="M20.39,10.85c-.19-.2-.38-.39-.58-.58,0,0,0-.07,0-.12l.67-.67a.44.44,0,0,1,.63,0,.43.43,0,0,1,0,.65Z" fill="#fefefe"/><path d="M19.22,10.82c0-.05-.07,0-.11,0a.73.73,0,0,0-.74.74l-.29.29a1,1,0,0,1,.76-1.32,1.07,1.07,0,0,1,1.36,1.13,1,1,0,0,1-.24.55s-.07.1-.13.06,0-.08,0-.13a.94.94,0,0,0,.08-.83A.84.84,0,0,0,19.22,10.82Z" fill="url(#Degradado_sin_nombre_24-17)"/><path d="M19.56,12.83c0,.05,0,.06,0,.07v1.78l-.35-.56-.32-.49s-.06-.07,0-.11C19.11,13.29,19.33,13.07,19.56,12.83Z" fill="#fbfdfc"/><path d="M11,19.48c0,.07,0,.1.12.1h.53a6.08,6.08,0,0,1-.61,0,1.14,1.14,0,0,1,.34.79h-.21a.37.37,0,0,1-.07-.14.8.8,0,0,0-.69-.58c-.14,0-.21-.05-.21-.19a.14.14,0,0,1,0-.09.14.14,0,0,1,.14-.06,1,1,0,0,1,.59.18C11,19.58,11,19.52,11,19.48Z" fill="url(#Degradado_sin_nombre_24-18)"/><path d="M16.1,16.31l.56-.56a2.46,2.46,0,0,1,.22.34.27.27,0,0,1-.05.36.32.32,0,0,1-.37.06l-.07,0Z" fill="#fcfcfb"/><path d="M18.75,12.5a1.29,1.29,0,0,1,.24-.23.41.41,0,0,1,.15-.07.46.46,0,0,0,.38-.4.29.29,0,0,1,0-.1.8.8,0,0,1,.21-.2.61.61,0,0,1-.08.66A.9.9,0,0,1,18.75,12.5Z" fill="url(#Degradado_sin_nombre_24-19)"/><path d="M10.77,2.45a3.75,3.75,0,0,1-.82,0s-.11,0,0-.11a.62.62,0,0,1,.89,0C10.87,2.42,10.81,2.43,10.77,2.45Z" fill="url(#Degradado_sin_nombre_24-20)"/><path d="M17.93,2.45H11.36s.09,0,.14,0h6.44A0,0,0,0,1,17.93,2.45Z" fill="url(#Degradado_sin_nombre_24-21)"/><path d="M3.3,4.39c0-.88,0-1.76,0-2.65,0-.09.06-.08.11-.08H6.82a.27.27,0,0,1-.17,0H3.49c-.14,0-.18,0-.18.17,0,.8,0,1.59,0,2.39A.26.26,0,0,1,3.3,4.39Z" fill="url(#Degradado_sin_nombre_24-22)"/><path d="M13,22H7.65c0-.05.1,0,.15,0h5.09S13,22,13,22Z" fill="#00070e"/><path d="M10.65,1.69h-.13v0h5.17a.27.27,0,0,1-.17,0H10.65Z" fill="url(#Degradado_sin_nombre_24-23)"/><path d="M1.94,1.66a.26.26,0,0,1-.24-.23c0-.1.11-.21.23-.22a.19.19,0,0,1,.21.16A.29.29,0,0,1,1.94,1.66Z" fill="url(#Degradado_sin_nombre_24-24)"/><path d="M5,21.23H9.68s-.09,0-.14,0H5.15C5.1,21.25,5,21.27,5,21.23Z" fill="#00020f"/><path d="M19.59,6.55c0-1.17,0-2.34,0-3.51,0-.27,0-.55,0-.82,0,0,0,0,0,0V6.44S19.62,6.52,19.59,6.55Z" fill="url(#Degradado_sin_nombre_24-25)"/><path d="M18.76,3.34V7.43c-.05,0,0-.09,0-.14V3.48S18.71,3.38,18.76,3.34Z" fill="url(#Degradado_sin_nombre_24-26)"/><path d="M18.79,20.6h0c-.1.1-.11,0-.11-.06s.25-.38.37-.35.18.14.26.22,0,0,0,0,0,0-.05,0l-.15-.14s-.09-.05-.13,0,0,.09,0,.12.18.11.12.17-.11-.06-.17-.1-.08-.07-.13,0S18.76,20.56,18.79,20.6Z" fill="#6a7882"/><path d="M13.87,21.23h4s-.1,0-.15,0H14S13.91,21.27,13.87,21.23Z" fill="#00020f"/><path d="M4.08,9.62c0,.79,0,1.58,0,2.37,0,.43,0,.87,0,1.31a.21.21,0,0,1,0-.15V9.76S4,9.66,4.08,9.62Z" fill="url(#Degradado_sin_nombre_24-27)"/><path d="M4.08,5.2c0,.33,0,.67,0,1,0,.87,0,1.74,0,2.61,0,0,0-.1,0-.14V5.34S4,5.24,4.08,5.2Z" fill="url(#Degradado_sin_nombre_24-28)"/><path d="M3.29,13.18V9.62s0,.09,0,.14V13S3.33,13.14,3.29,13.18Z" fill="url(#Degradado_sin_nombre_24-29)"/><path d="M3.29,8.78V5.23a.22.22,0,0,1,0,.14V8.65A.16.16,0,0,1,3.29,8.78Z" fill="url(#Degradado_sin_nombre_24-30)"/><path d="M.37,21.2c0,.08,0,.15,0,.2s.12,0,.17,0,.09-.14.14-.08,0,.12-.09.16a.18.18,0,0,1-.24,0,.23.23,0,0,1-.14-.23.2.2,0,0,1,.14-.17c.06,0,.11,0,.11.05s.05.16,0,.19S.42,21.25.37,21.2Z" fill="url(#Degradado_sin_nombre_24-31)"/><path d="M2.08,2.25A.74.74,0,0,1,1.7,2s0-.08,0-.05.11,0,.15,0,.07-.08.11,0,0,.09,0,.12-.08.12,0,.18.08,0,.12,0,0-.08,0-.12,0-.07,0-.09.06,0,.08.05a.15.15,0,0,1,0,.18A.12.12,0,0,1,2.08,2.25Z" fill="url(#Degradado_sin_nombre_24-32)"/><path d="M18.76,20.93V21c-.08,0-.11-.07-.16-.11a.15.15,0,0,0-.19,0,.11.11,0,0,0,0,.12.12.12,0,0,0,.17.07s.08,0,.1,0,0,.06-.07.08a.21.21,0,0,1-.27-.09.21.21,0,0,1,0-.27.2.2,0,0,1,.27,0C18.66,20.81,18.7,20.87,18.76,20.93Z" fill="#697784"/><path d="M16.49,22H13.1s.09,0,.14,0h3.11S16.45,22,16.49,22Z" fill="#00070e"/><path d="M18.76,3.25v.06c-.08,0-.11-.08-.16-.11s-.12-.09-.19,0a.09.09,0,0,0,0,.13c0,.07.09.08.16.06s.09,0,.11,0-.06.06-.09.07a.21.21,0,0,1-.26-.09.21.21,0,0,1,0-.27.19.19,0,0,1,.27,0A1.29,1.29,0,0,1,18.76,3.25Z" fill="url(#Degradado_sin_nombre_24-33)"/><path d="M6.86,1.67h3.3c-.07,0-.12,0-.18,0H7A.32.32,0,0,1,6.86,1.67Z" fill="url(#Degradado_sin_nombre_24-34)"/><path d="M10.6,21.23h3.21s-.1,0-.14,0H10.72S10.63,21.27,10.6,21.23Z" fill="#00020f"/><path d="M9.24,2.42v0H6.12c0-.05.11,0,.16,0Z" fill="url(#Degradado_sin_nombre_24-35)"/><path d="M7.59,22H4.53c0-.06,0,0,.07,0H7.47S7.56,22,7.59,22Z" fill="#00070e"/><path d="M19.59,1.63a1.48,1.48,0,0,1,0-.42.18.18,0,0,1,.22.14.31.31,0,0,1-.1.28S19.63,1.65,19.59,1.63Z" fill="url(#Degradado_sin_nombre_24-36)"/><path d="M18,10.79a.7.7,0,0,1,0-.25A5.28,5.28,0,0,1,18,10V8.42a.42.42,0,0,1,0-.16h0s0,.05,0,.09v2.43a.08.08,0,0,1,0,0Z" fill="url(#Degradado_sin_nombre_24-37)"/><path d="M18,6.07c0-.09-.06-.17,0-.26s0,.1,0,.15V8c0,.05,0,.1,0,.14s0-.08,0-.12c0-.27,0-.55,0-.82S17.94,6.46,18,6.07Z" fill="url(#Degradado_sin_nombre_24-38)"/><path d="M18.76,7.49V10c-.08,0,0-.12,0-.17,0-.73,0-1.46,0-2.19C18.73,7.59,18.71,7.54,18.76,7.49Z" fill="url(#Degradado_sin_nombre_24-39)"/><path d="M9.74,21.23a5,5,0,0,1,.77,0c0,.07-.08.07-.13.08a.87.87,0,0,1-.53,0S9.75,21.29,9.74,21.23Z" fill="#656f78"/><path d="M19.34,9.47a.69.69,0,0,0,.25-.66c0-.44,0-.88,0-1.32,0,0,0,.11,0,.16V9.09A.38.38,0,0,1,19.34,9.47Z" fill="url(#Degradado_sin_nombre_24-40)"/><path d="M17.7,22h-.06c0-.17-.12-.23-.2-.33s-.16-.11-.11-.17.11.06.17.09a1.21,1.21,0,0,1,.16.16A.19.19,0,0,1,17.7,22Z" fill="#6a7783"/><path d="M6.06,2.45H4.11s.07,0,.11,0H6A.14.14,0,0,1,6.06,2.45Z" fill="url(#Degradado_sin_nombre_24-41)"/><path d="M19.61,2.22h0V2.1s0,0,.06,0a.08.08,0,0,0,.11,0s0-.08,0-.12,0-.07,0-.09.06,0,.08.05a.15.15,0,0,1,0,.18c0,.06-.07.08-.14.08A.35.35,0,0,1,19.61,2.22Z" fill="url(#Degradado_sin_nombre_24-42)"/><path d="M17.67,21.52c0-.05,0-.11.06-.11s0,.06,0,.1.1.13.15.2.07.05,0,.09-.06,0-.08,0S17.67,21.64,17.67,21.52Z" fill="#6c7984"/><path d="M2.46,1.33v.39l0-.05C2.26,1.52,2.27,1.44,2.46,1.33Z" fill="url(#Degradado_sin_nombre_24-43)"/><path d="M2.46,1.89V2a.59.59,0,0,1-.35-.27s0,0,0,0,0,0,.07,0l.15.15S2.4,1.9,2.46,1.89Z" fill="url(#Degradado_sin_nombre_24-44)"/><path d="M19.82,1.63l0,0c.08.08.16.15.24.24s0,0,0,.05,0,0-.05,0-.18-.17-.27-.27S19.79,1.64,19.82,1.63Z" fill="url(#Degradado_sin_nombre_24-45)"/><path d="M19.59,7.43V6.61A2.82,2.82,0,0,1,19.59,7.43Z" fill="url(#Degradado_sin_nombre_24-46)"/><path d="M7.35,7.35H6.58A1.23,1.23,0,0,1,5.31,6.09q0-.78,0-1.56A1.23,1.23,0,0,1,6.59,3.27a4.85,4.85,0,0,0,.66,0c.08,0,.11,0,.11.1s0,.42,0,.62,0,.11-.11.11H6.57a.4.4,0,0,0-.44.42q0,.8,0,1.59a.41.41,0,0,0,.44.43H8.11a.44.44,0,0,0,.46-.48c0-.21,0-.42,0-.63s0-.12.11-.12h.64s.08,0,.08.07a6.86,6.86,0,0,1,0,1,1.2,1.2,0,0,1-1.1,1c-.31,0-.61,0-.91,0Z" fill="url(#Degradado_sin_nombre_24-47)"/><path d="M16.72,4.07s-.08,0-.12,0H10.74c-.1,0-.14,0-.14-.13s0-.45,0-.69h.61a.42.42,0,0,0,.16,0h2.5a.42.42,0,0,0,.16,0h.09a.43.43,0,0,0,.16,0h2.26c.16,0,.16,0,.16.16s0,.3,0,.46,0,.15-.15.15h-3s0,0-.08,0a.17.17,0,0,1,.1,0H16.6A.25.25,0,0,1,16.72,4.07Z" fill="url(#Degradado_sin_nombre_24-48)"/><path d="M11.83,8.58h1.36a.3.3,0,0,0,.16,0h3.21c.11,0,.16,0,.15.15a3.68,3.68,0,0,0,0,.47c0,.11,0,.15-.14.15H12.82a.29.29,0,0,0-.16,0,.76.76,0,0,1-.3,0,.26.26,0,0,0-.15,0H10.78c-.12,0-.15,0-.14-.15a4.17,4.17,0,0,0,0-.5c0-.1,0-.13.12-.12h.93A.22.22,0,0,0,11.83,8.58Z" fill="url(#Degradado_sin_nombre_24-49)"/><path d="M13.05,5.73c-.77,0-1.54,0-2.31,0-.12,0-.14,0-.14-.15a4.86,4.86,0,0,0,0-.54c0-.12,0-.14.15-.14h4.49c.26,0,.26,0,.26.26a3.2,3.2,0,0,0,0,.44c0,.11,0,.13-.13.13C14.6,5.72,13.83,5.73,13.05,5.73Z" fill="url(#Degradado_sin_nombre_24-50)"/><path d="M11,10.21h.29c-.09.22-.09.23.1.38a1.5,1.5,0,0,0-.11-.13s0-.08,0-.12a.13.13,0,0,1,.14,0c.06,0,.1.08.17.11s-.14-.1-.13-.2H14.6c.08,0,.09,0,.09.09v.65c0,.07,0,.09-.09.09H10.86c-.16-.09-.16-.12-.06-.26s0,0-.05,0-.14.07-.14-.07v-.12c0-.1,0-.2.14-.12s.13,0,.17-.1S11,10.25,11,10.21Z" fill="url(#Degradado_sin_nombre_24-51)"/><path d="M9.27,9.27l-.06.06L7.3,11.25c-.06.06-.09.06-.15,0l-.44-.45c0-.05,0-.07,0-.12L8.63,8.75s0-.07.11,0l.49.5Z" fill="url(#Degradado_sin_nombre_24-52)"/><path d="M9.27,4l-2,2s-.07,0-.12,0-.31-.32-.47-.47,0-.08,0-.12L8.63,3.45c.06-.06.08,0,.13,0Z" fill="url(#Degradado_sin_nombre_24-53)"/><path d="M10.21,19.49c0,.11.09.14.21.15a.85.85,0,0,1,.76.76H11a.3.3,0,0,1-.08-.16.67.67,0,0,0-.42-.35c-.11,0-.2,0-.21.12s0,.07-.06.07A3.87,3.87,0,0,1,10.21,19.49Z" fill="url(#Degradado_sin_nombre_24-54)"/><path d="M12.66,9.38c.05-.05.11,0,.16,0h3.7c.14,0,.19,0,.18-.18a2.41,2.41,0,0,1,0-.38c0-.14,0-.18-.18-.18H13.36c-.06,0-.12,0-.17,0H16.6c.11,0,.13,0,.13.13a5.61,5.61,0,0,0,0,.58c0,.06,0,.1-.09.1h-4Z" fill="url(#Degradado_sin_nombre_24-55)"/><path d="M10.21,20.08a.14.14,0,0,0,0-.06c0-.18.07-.21.25-.17a.65.65,0,0,1,.5.55h-.24a.63.63,0,0,1-.12-.11.37.37,0,0,0-.29-.14c-.05,0-.09,0-.12,0Z" fill="url(#Degradado_sin_nombre_24-56)"/><path d="M16.72,4.07H13.4v0h3.13c.13,0,.18,0,.17-.16a3.23,3.23,0,0,1,0-.44c0-.12,0-.14-.15-.14H14.29s-.11,0-.16,0h2.51c.07,0,.09,0,.09.09C16.72,3.6,16.72,3.84,16.72,4.07Z" fill="url(#Degradado_sin_nombre_24-57)"/><path d="M11,10.21a1,1,0,0,1,0,.14c-.06.18-.16.21-.34.12v.33a.23.23,0,0,0,.14-.09s.07-.05.1,0,0,.07,0,.08-.06.17,0,.25c-.24,0-.25,0-.25-.23s0-.34,0-.51,0-.08.09-.08Z" fill="#656f78"/><path d="M10.21,20.1a.49.49,0,0,1,.53.3h-.43c-.1,0-.12,0-.11-.11A1.15,1.15,0,0,0,10.21,20.1Z" fill="url(#Degradado_sin_nombre_24-58)"/><path d="M11.83,8.58c0,.05-.1,0-.15,0H10.8c-.12,0-.15,0-.15.15a3.53,3.53,0,0,1,0,.46c0,.1,0,.13.13.13h1.43s.11,0,.15,0H10.69c-.07,0-.08,0-.08-.08V8.66c0-.07,0-.08.08-.08Z" fill="url(#Degradado_sin_nombre_24-59)"/><path d="M11.45,10.21l.17.18s.05,0,0,.09-.06,0-.08,0a.69.69,0,0,0-.13-.11s-.09,0-.12,0,0,.08,0,.11l.14.14s0,.05,0,.07h-.05c-.09-.07-.19-.13-.22-.25s0-.15.11-.2Z" fill="#6a7782"/><path d="M14,3.28s-.07,0-.11,0h-2.6a.14.14,0,0,1-.11,0Z" fill="url(#Degradado_sin_nombre_24-60)"/><path d="M18,8.26c0,.76,0,1.52,0,2.28,0-.42,0-.83,0-1.25S17.93,8.6,18,8.26Z" fill="url(#Degradado_sin_nombre_24-61)"/><path d="M18,6.07c0,.29,0,.59,0,.88s0,.74,0,1.11c0-.35,0-.7,0-1.05S18,6.38,18,6.07Z" fill="url(#Degradado_sin_nombre_24-62)"/><path d="M18.37,11.59c-.07-.14,0-.25.05-.37a.72.72,0,0,1,.55-.39s.1,0,.14,0Z" fill="url(#Degradado_sin_nombre_24-63)"/><path d="M19.55,11.7c0,.35-.16.52-.56.57C19.17,12.07,19.36,11.88,19.55,11.7Z" fill="url(#Degradado_sin_nombre_24-64)"/><path d="M11,10.5a1.53,1.53,0,0,1,.28.29.06.06,0,0,1,0,0s0,0,0,0L11,10.58a.06.06,0,0,1,0-.06Z" fill="#6c7983"/></g></g></svg>