<svg xmlns="http://www.w3.org/2000/svg" xmlns:xlink="http://www.w3.org/1999/xlink" viewBox="0 0 21.64 21.64"><defs><linearGradient id="Degradado_sin_nombre_24" y1="10.82" x2="21.64" y2="10.82" gradientUnits="userSpaceOnUse"><stop offset="0" stop-color="#1d71b8"/><stop offset="0.31" stop-color="#1b6eb5"/><stop offset="0.55" stop-color="#1664ab"/><stop offset="0.77" stop-color="#0e549b"/><stop offset="0.97" stop-color="#023c83"/><stop offset="1" stop-color="#00387f"/></linearGradient><linearGradient id="Degradado_sin_nombre_24-2" x1="7.08" y1="6.11" x2="14.55" y2="6.11" xlink:href="#Degradado_sin_nombre_24"/></defs><g id="Layer_2" data-name="Layer 2"><g id="Capa_1" data-name="Capa 1"><path d="M10.82,0A10.83,10.83,0,0,0,0,10.82,10.83,10.83,0,0,0,10.82,21.64,10.82,10.82,0,0,0,10.82,0Zm8,16.73a8.38,8.38,0,0,0-16,0A9.86,9.86,0,0,1,.86,10.82a10,10,0,0,1,19.92,0A9.86,9.86,0,0,1,18.83,16.73Z" fill="url(#Degradado_sin_nombre_24)"/><circle cx="10.82" cy="6.11" r="3.74" fill="url(#Degradado_sin_nombre_24-2)"/></g></g></svg>