<svg xmlns="http://www.w3.org/2000/svg" xmlns:xlink="http://www.w3.org/1999/xlink" viewBox="0 0 21.64 21.64"><defs><linearGradient id="Degradado_sin_nombre_24" y1="10.82" x2="21.64" y2="10.82" gradientUnits="userSpaceOnUse"><stop offset="0" stop-color="#1d71b8"/><stop offset="0.31" stop-color="#1b6eb5"/><stop offset="0.55" stop-color="#1664ab"/><stop offset="0.77" stop-color="#0e549b"/><stop offset="0.97" stop-color="#023c83"/><stop offset="1" stop-color="#00387f"/></linearGradient><linearGradient id="Degradado_sin_nombre_24-2" x1="1.28" y1="14.49" x2="20.36" y2="14.49" xlink:href="#Degradado_sin_nombre_24"/><linearGradient id="Degradado_sin_nombre_24-3" x1="6.41" y1="6.71" x2="15.23" y2="6.71" xlink:href="#Degradado_sin_nombre_24"/></defs><g id="Layer_2" data-name="Layer 2"><g id="Capa_1" data-name="Capa 1"><path d="M18.47,3.17A10.82,10.82,0,0,0,0,10.82a10.7,10.7,0,0,0,1.28,5.11,2.69,2.69,0,0,0,.16.29,11,11,0,0,0,1.73,2.25,10.82,10.82,0,0,0,15.3,0,11,11,0,0,0,1.73-2.25l.16-.29A10.82,10.82,0,0,0,18.47,3.17ZM20.1,15.73l-.16.29A10.5,10.5,0,0,1,1.7,16l-.16-.29a10.5,10.5,0,1,1,19.78-4.91A10.41,10.41,0,0,1,20.1,15.73Z" fill="url(#Degradado_sin_nombre_24)"/><path d="M20.34,15.92l-.24-.19a15.37,15.37,0,0,0-9.28-3,15.34,15.34,0,0,0-9.28,3l-.24.19h0a2.69,2.69,0,0,0,.16.29L1.7,16a15,15,0,0,1,9.12-2.94A15,15,0,0,1,19.94,16l.26.2.16-.29Z" fill="url(#Degradado_sin_nombre_24-2)"/><path d="M10.82,2.29a4.42,4.42,0,1,0,4.41,4.42A4.42,4.42,0,0,0,10.82,2.29Zm0,8.51a4.1,4.1,0,1,1,4.1-4.09A4.1,4.1,0,0,1,10.82,10.8Z" fill="url(#Degradado_sin_nombre_24-3)"/></g></g></svg>